<svg xmlns="http://www.w3.org/2000/svg" xmlns:xlink="http://www.w3.org/1999/xlink" width="1080" zoomAndPan="magnify" viewBox="0 0 810 1439.999935" height="1920" preserveAspectRatio="xMidYMid meet" version="1.0"><defs><clipPath id="330295823b"><path d="M 17.425781 314.164062 L 792.925781 314.164062 L 792.925781 1125.664062 L 17.425781 1125.664062 Z M 17.425781 314.164062 " clip-rule="nonzero"/></clipPath></defs><g clip-path="url(#330295823b)"><path fill="#fffef0" d="M 652.546875 395.363281 L 614.867188 395.363281 L 614.867188 339.09375 C 614.867188 325.558594 603.855469 314.648438 590.417969 314.648438 C 576.882812 314.648438 565.972656 325.660156 565.972656 339.09375 L 565.972656 395.464844 L 229.976562 395.464844 L 229.976562 339.09375 C 229.976562 325.558594 218.964844 314.648438 205.527344 314.648438 C 191.992188 314.648438 181.082031 325.660156 181.082031 339.09375 L 181.082031 395.464844 L 157.339844 395.464844 C 80.058594 395.464844 17.425781 458.097656 17.425781 535.378906 L 17.425781 985.429688 C 17.425781 1062.710938 80.058594 1125.34375 157.339844 1125.34375 L 652.546875 1125.34375 C 729.828125 1125.34375 792.460938 1062.710938 792.460938 985.429688 L 792.460938 535.378906 C 792.5625 458.097656 729.828125 395.363281 652.546875 395.363281 Z M 565.871094 421.226562 L 565.871094 472.039062 C 565.871094 485.574219 576.882812 496.484375 590.316406 496.484375 C 603.855469 496.484375 614.765625 485.472656 614.765625 472.039062 L 614.765625 423.144531 C 630.421875 432.234375 641.03125 449.207031 641.03125 468.605469 C 641.03125 497.597656 617.492188 521.136719 588.5 521.136719 C 559.507812 521.136719 535.96875 497.597656 535.96875 468.605469 C 536.171875 447.691406 548.292969 429.710938 565.871094 421.226562 Z M 180.980469 422.132812 L 180.980469 472.039062 C 180.980469 485.574219 191.992188 496.484375 205.425781 496.484375 C 218.964844 496.484375 229.875 485.472656 229.875 472.039062 L 229.875 422.132812 C 246.542969 430.921875 257.855469 448.398438 257.855469 468.503906 C 257.855469 497.496094 234.320312 521.035156 205.324219 521.035156 C 176.332031 521.035156 152.792969 497.496094 152.792969 468.503906 C 152.996094 448.398438 164.414062 430.921875 180.980469 422.132812 Z M 743.566406 985.328125 C 743.566406 1035.535156 702.753906 1076.246094 652.648438 1076.246094 L 157.339844 1076.246094 C 107.132812 1076.246094 66.421875 1035.433594 66.421875 985.328125 L 66.421875 612.558594 L 743.566406 612.558594 Z M 743.566406 985.328125 " fill-opacity="1" fill-rule="nonzero"/></g><path fill="#fffef0" d="M 230.683594 753.6875 L 162.898438 753.6875 C 157.441406 753.6875 152.996094 749.242188 152.996094 743.785156 L 152.996094 676 C 152.996094 670.546875 157.441406 666.101562 162.898438 666.101562 L 230.683594 666.101562 C 236.136719 666.101562 240.582031 670.546875 240.582031 676 L 240.582031 743.785156 C 240.480469 749.242188 236.136719 753.6875 230.683594 753.6875 Z M 230.683594 753.6875 " fill-opacity="1" fill-rule="nonzero"/><path fill="#fffef0" d="M 230.683594 892.691406 L 162.898438 892.691406 C 157.441406 892.691406 152.996094 888.246094 152.996094 882.792969 L 152.996094 815.007812 C 152.996094 809.550781 157.441406 805.105469 162.898438 805.105469 L 230.683594 805.105469 C 236.136719 805.105469 240.582031 809.550781 240.582031 815.007812 L 240.582031 882.792969 C 240.480469 888.347656 236.136719 892.691406 230.683594 892.691406 Z M 230.683594 892.691406 " fill-opacity="1" fill-rule="nonzero"/><path fill="#fffef0" d="M 230.683594 1031.796875 L 162.898438 1031.796875 C 157.441406 1031.796875 152.996094 1027.351562 152.996094 1021.898438 L 152.996094 954.113281 C 152.996094 948.65625 157.441406 944.210938 162.898438 944.210938 L 230.683594 944.210938 C 236.136719 944.210938 240.582031 948.65625 240.582031 954.113281 L 240.582031 1022 C 240.480469 1027.351562 236.136719 1031.796875 230.683594 1031.796875 Z M 230.683594 1031.796875 " fill-opacity="1" fill-rule="nonzero"/><path fill="#fffef0" d="M 369.6875 753.6875 L 301.902344 753.6875 C 296.445312 753.6875 292.003906 749.242188 292.003906 743.785156 L 292.003906 676 C 292.003906 670.546875 296.445312 666.101562 301.902344 666.101562 L 369.6875 666.101562 C 375.144531 666.101562 379.585938 670.546875 379.585938 676 L 379.585938 743.785156 C 379.585938 749.242188 375.144531 753.6875 369.6875 753.6875 Z M 369.6875 753.6875 " fill-opacity="1" fill-rule="nonzero"/><path fill="#fffef0" d="M 369.6875 892.691406 L 301.902344 892.691406 C 296.445312 892.691406 292.003906 888.246094 292.003906 882.792969 L 292.003906 815.007812 C 292.003906 809.550781 296.445312 805.105469 301.902344 805.105469 L 369.6875 805.105469 C 375.144531 805.105469 379.585938 809.550781 379.585938 815.007812 L 379.585938 882.792969 C 379.585938 888.347656 375.144531 892.691406 369.6875 892.691406 Z M 369.6875 892.691406 " fill-opacity="1" fill-rule="nonzero"/><path fill="#fffef0" d="M 369.6875 1031.796875 L 301.902344 1031.796875 C 296.445312 1031.796875 292.003906 1027.351562 292.003906 1021.898438 L 292.003906 954.113281 C 292.003906 948.65625 296.445312 944.210938 301.902344 944.210938 L 369.6875 944.210938 C 375.144531 944.210938 379.585938 948.65625 379.585938 954.113281 L 379.585938 1022 C 379.585938 1027.351562 375.144531 1031.796875 369.6875 1031.796875 Z M 369.6875 1031.796875 " fill-opacity="1" fill-rule="nonzero"/><path fill="#fffef0" d="M 508.792969 753.6875 L 441.007812 753.6875 C 435.554688 753.6875 431.109375 749.242188 431.109375 743.785156 L 431.109375 676 C 431.109375 670.546875 435.554688 666.101562 441.007812 666.101562 L 508.792969 666.101562 C 514.25 666.101562 518.695312 670.546875 518.695312 676 L 518.695312 743.785156 C 518.59375 749.242188 514.25 753.6875 508.792969 753.6875 Z M 508.792969 753.6875 " fill-opacity="1" fill-rule="nonzero"/><path fill="#fffef0" d="M 508.792969 892.691406 L 441.007812 892.691406 C 435.554688 892.691406 431.109375 888.246094 431.109375 882.792969 L 431.109375 815.007812 C 431.109375 809.550781 435.554688 805.105469 441.007812 805.105469 L 508.792969 805.105469 C 514.25 805.105469 518.695312 809.550781 518.695312 815.007812 L 518.695312 882.792969 C 518.59375 888.347656 514.25 892.691406 508.792969 892.691406 Z M 508.792969 892.691406 " fill-opacity="1" fill-rule="nonzero"/><path fill="#fffef0" d="M 508.792969 1031.796875 L 441.007812 1031.796875 C 435.554688 1031.796875 431.109375 1027.351562 431.109375 1021.898438 L 431.109375 954.113281 C 431.109375 948.65625 435.554688 944.210938 441.007812 944.210938 L 508.792969 944.210938 C 514.25 944.210938 518.695312 948.65625 518.695312 954.113281 L 518.695312 1022 C 518.59375 1027.351562 514.25 1031.796875 508.792969 1031.796875 Z M 508.792969 1031.796875 " fill-opacity="1" fill-rule="nonzero"/><path fill="#fffef0" d="M 647.898438 753.6875 L 580.113281 753.6875 C 574.660156 753.6875 570.214844 749.242188 570.214844 743.785156 L 570.214844 676 C 570.214844 670.546875 574.660156 666.101562 580.113281 666.101562 L 647.898438 666.101562 C 653.355469 666.101562 657.800781 670.546875 657.800781 676 L 657.800781 743.785156 C 657.699219 749.242188 653.253906 753.6875 647.898438 753.6875 Z M 647.898438 753.6875 " fill-opacity="1" fill-rule="nonzero"/><path fill="#fffef0" d="M 647.898438 892.691406 L 580.113281 892.691406 C 574.660156 892.691406 570.214844 888.246094 570.214844 882.792969 L 570.214844 815.007812 C 570.214844 809.550781 574.660156 805.105469 580.113281 805.105469 L 647.898438 805.105469 C 653.355469 805.105469 657.800781 809.550781 657.800781 815.007812 L 657.800781 882.792969 C 657.699219 888.347656 653.253906 892.691406 647.898438 892.691406 Z M 647.898438 892.691406 " fill-opacity="1" fill-rule="nonzero"/></svg>