<svg width="27" height="27" viewBox="0 0 27 27" fill="none" xmlns="http://www.w3.org/2000/svg">
<path fill-rule="evenodd" clip-rule="evenodd" d="M23.0671 3.92362C21.8216 2.67604 20.3396 1.68683 18.7072 1.01333C17.0747 0.339826 15.3242 -0.0045862 13.557 4.61139e-05C6.14388 4.61139e-05 0.116032 6.00153 0.112809 13.3785C0.109826 15.7262 0.728835 18.0333 1.90743 20.067L0 27L7.12692 25.1396C9.09787 26.2078 11.3063 26.7675 13.5506 26.7678H13.5564C20.9656 26.7678 26.9974 20.7656 26.9999 13.3887C27.0055 11.6307 26.6608 9.88894 25.9858 8.2643C25.3107 6.63965 24.3187 5.16432 23.0671 3.92362ZM13.557 24.5083H13.5506C11.5494 24.5086 9.58496 23.9732 7.86308 22.9584L7.45504 22.7172L3.22568 23.8212L4.35506 19.7155L4.08883 19.2946C2.97144 17.5228 2.37993 15.4729 2.38252 13.381C2.38252 7.24994 7.39766 2.26143 13.5615 2.26143C16.5252 2.26313 19.3668 3.43629 21.4614 5.52289C23.556 7.60948 24.7321 10.4386 24.7309 13.3881C24.7283 19.5198 19.7157 24.5083 13.557 24.5083ZM19.6861 16.18C19.3502 16.0126 17.6987 15.2036 17.3906 15.0894C17.0824 14.9752 16.8588 14.9226 16.6351 15.2568C16.4114 15.5911 15.7674 16.3474 15.5715 16.5675C15.3755 16.7875 15.1795 16.819 14.8437 16.6515C14.5078 16.4841 13.4255 16.1312 12.1421 14.9919C11.1436 14.1059 10.4693 13.0109 10.2727 12.676C10.0761 12.3411 10.252 12.1628 10.4203 11.994C10.5711 11.8439 10.7561 11.6033 10.9237 11.4083C11.0913 11.2133 11.1481 11.0734 11.2596 10.8508C11.3711 10.6282 11.3157 10.4326 11.2319 10.2651C11.1481 10.0977 10.4764 8.45217 10.196 7.78241C9.92329 7.13062 9.64675 7.21915 9.44047 7.20889C9.24708 7.19926 9.02017 7.1967 8.79585 7.1967C8.62555 7.20128 8.45804 7.24087 8.30384 7.31296C8.14965 7.38505 8.0121 7.48809 7.89983 7.61561C7.59234 7.94985 6.72468 8.75882 6.72468 10.4043C6.72468 12.0499 7.92819 13.6396 8.09579 13.8628C8.26339 14.0861 10.4648 17.4624 13.8329 18.9103C14.4583 19.179 15.0976 19.4146 15.7481 19.616C16.5532 19.8726 17.2855 19.8341 17.8637 19.7482C18.5083 19.6526 19.8517 18.9399 20.1315 18.1591C20.4113 17.3784 20.4113 16.7086 20.3249 16.5688C20.2385 16.4289 20.0219 16.3474 19.6861 16.18Z" fill="white"/>
</svg>
